<svg width="48" height="48" viewBox="0 0 48 48" fill="none" xmlns="http://www.w3.org/2000/svg">
<path fill-rule="evenodd" clip-rule="evenodd" d="M42.998 5.0172C38.4694 0.504875 31.9579 0 24 0C16.0315 0 9.51478 0.510135 4.98619 5.03298C0.457593 9.55582 0 16.0666 0 24.0237C0 31.9807 0.457593 38.4968 4.98619 43.0196C9.51478 47.5425 16.0315 48 24 48C31.9684 48 38.4852 47.5425 43.0138 43.0196C47.5424 38.4968 48 31.986 48 24.0237C48.0052 16.0561 47.5371 9.53479 42.998 5.0172V5.0172Z" fill="#FF37A5"/>
<path d="M33.4987 27.8281C32.8546 27.8281 32.332 28.3507 32.332 28.9948V30.9948C32.332 31.7297 31.7336 32.3281 30.9987 32.3281H28.9987C28.3546 32.3281 27.832 32.8507 27.832 33.4948C27.832 34.1388 28.3546 34.6615 28.9987 34.6615H30.9987C33.0202 34.6615 34.6654 33.0169 34.6654 30.9948V28.9948C34.6654 28.3507 34.1427 27.8281 33.4987 27.8281Z" fill="white"/>
<path d="M14.4987 27.8359C13.8547 27.8359 13.332 28.3586 13.332 29.0026V31.0026C13.332 33.0247 14.9772 34.6693 16.9987 34.6693H18.9987C19.6427 34.6693 20.1654 34.1467 20.1654 33.5026C20.1654 32.8586 19.6427 32.3359 18.9987 32.3359H16.9987C16.2637 32.3359 15.6654 31.7376 15.6654 31.0026V29.0026C15.6654 28.3586 15.1427 27.8359 14.4987 27.8359Z" fill="white"/>
<path d="M28.9987 13.3359C28.3546 13.3359 27.832 13.8586 27.832 14.5026C27.832 15.1467 28.3546 15.6693 28.9987 15.6693H30.9987C31.7336 15.6693 32.332 16.2677 32.332 17.0026V19.0026C32.332 19.6467 32.8546 20.1693 33.4987 20.1693C34.1427 20.1693 34.6654 19.6467 34.6654 19.0026V17.0026C34.6654 14.9805 33.0202 13.3359 30.9987 13.3359H28.9987Z" fill="white"/>
<path d="M16.9987 13.3359C14.9772 13.3359 13.332 14.9805 13.332 17.0026V19.0026C13.332 19.6467 13.8547 20.1693 14.4987 20.1693C15.1427 20.1693 15.6654 19.6467 15.6654 19.0026V17.0026C15.6654 16.2677 16.2637 15.6693 16.9987 15.6693H18.9987C19.6427 15.6693 20.1654 15.1467 20.1654 14.5026C20.1654 13.8586 19.6427 13.3359 18.9987 13.3359H16.9987Z" fill="white"/>
<path d="M11 24.0031C11 23.2852 11.582 22.7031 12.3 22.7031H35.7C36.418 22.7031 37 23.2852 37 24.0031V24.0031C37 24.7211 36.418 25.3031 35.7 25.3031H12.3C11.582 25.3031 11 24.7211 11 24.0031V24.0031Z" fill="white"/>
</svg>
