<svg width="32" height="32" viewBox="0 0 32 32" fill="none" xmlns="http://www.w3.org/2000/svg">
<path d="M17 9C21.9706 9 26 12.3579 26 16.5C26 18.5586 25.0047 20.4235 23.3933 21.7787C23.1517 21.9819 23 22.2762 23 22.5919V25H21L20.2062 23.8674C20.083 23.6916 19.8616 23.6153 19.6537 23.6687C17.9248 24.1132 16.0752 24.1132 14.3463 23.6687C14.1384 23.6153 13.917 23.6916 13.7938 23.8674L13 25H11V22.6154C11 22.2866 10.8383 21.9788 10.5676 21.7922C9.49285 21.0511 6 19.6014 6 18.0582V16.5C6 15.9083 6.44771 15.4286 7 15.4286C7.60665 15.4286 8.10188 15.1929 8.30205 14.5661C9.32552 11.3612 12.8319 9 17 9Z" stroke="#071A38" stroke-width="1.8" stroke-linejoin="round"/>
<path d="M18.5 13C17.868 12.675 17.1963 12.5 16.5 12.5C15.8037 12.5 15.132 12.675 14.5 13" stroke="#071A38" stroke-width="1.8" stroke-linecap="round" stroke-linejoin="round"/>
<path d="M11.5 15H11.509" stroke="#071A38" stroke-width="1.8" stroke-linecap="round" stroke-linejoin="round"/>
<path d="M25 12.5C25.5 12 26 11.063 26 9.83053C26 8.26727 24.6569 7 23 7C22.6494 7 22.3128 7.05676 22 7.16106" stroke="#071A38" stroke-width="1.8" stroke-linecap="round"/>
</svg>
