<svg width="32" height="32" viewBox="0 0 32 32" fill="none" xmlns="http://www.w3.org/2000/svg">
<path d="M9 17.5H7C6.44772 17.5 6 17.9477 6 18.5V25C6 25.5523 6.44772 26 7 26H9C9.55228 26 10 25.5523 10 25V18.5C10 17.9477 9.55228 17.5 9 17.5Z" stroke="#071A38" stroke-width="1.5" stroke-linecap="round" stroke-linejoin="round"/>
<path d="M10 18.5H15.75C16.4404 18.5 17 19.0596 17 19.75C17 20.4404 16.4404 21 15.75 21H13.5" stroke="#071A38" stroke-width="1.5" stroke-linecap="round" stroke-linejoin="round"/>
<path d="M15 20.9998H18.6917C19.5417 20.9998 20.3697 20.729 21.0554 20.2267L23.6836 18.3015C24.2549 17.8584 25.0678 17.9088 25.5796 18.4192C26.1734 19.0112 26.1328 19.9828 25.4918 20.5236L21.0951 24.1022C20.3817 24.6828 19.49 24.9998 18.5701 24.9998H10" stroke="#071A38" stroke-width="1.5" stroke-linecap="round" stroke-linejoin="round"/>
<path d="M24 11C24 13.7613 21.7614 16 19 16C16.2386 16 14 13.7613 14 11C14 8.23857 16.2386 6 19 6C21.7614 6 24 8.23857 24 11Z" stroke="#071A38" stroke-width="1.5" stroke-linecap="round" stroke-linejoin="round"/>
</svg>
