<svg width="32" height="32" viewBox="0 0 32 32" fill="none" xmlns="http://www.w3.org/2000/svg">
<path fill-rule="evenodd" clip-rule="evenodd" d="M5 10.5C5 8.8455 6.3455 7.5 8 7.5H24C25.6545 7.5 27 8.8455 27 10.5V21.5C27 23.1545 25.6545 24.5 24 24.5H8C6.3455 24.5 5 23.1545 5 21.5V10.5ZM24 9.5H8C7.4485 9.5 7 9.9485 7 10.5V11.0195H25V10.5C25 9.9485 24.5515 9.5 24 9.5ZM25 13.0195H7V21.5C7 22.0515 7.4485 22.5 8 22.5H24C24.5515 22.5 25 22.0515 25 21.5V13.0195ZM19.8333 14.6667C19.189 14.6667 18.6667 15.189 18.6667 15.8333C18.6667 16.4777 19.189 17 19.8333 17H22.1667C22.811 17 23.3333 16.4777 23.3333 15.8333C23.3333 15.189 22.811 14.6667 22.1667 14.6667H19.8333Z" fill="#071A38"/>
</svg>
