<svg width="32" height="32" viewBox="0 0 32 32" fill="none" xmlns="http://www.w3.org/2000/svg">
<path d="M25 14.5V23.5C25 23.9659 25 24.1989 24.9239 24.3827C24.8224 24.6277 24.6277 24.8224 24.3827 24.9239C24.1989 25 23.9659 25 23.5 25C23.0341 25 22.8011 25 22.6173 24.9239C22.3723 24.8224 22.1776 24.6277 22.0761 24.3827C22 24.1989 22 23.9659 22 23.5V14.5C22 14.0341 22 13.8011 22.0761 13.6173C22.1776 13.3723 22.3723 13.1776 22.6173 13.0761C22.8011 13 23.0341 13 23.5 13C23.9659 13 24.1989 13 24.3827 13.0761C24.6277 13.1776 24.8224 13.3723 24.9239 13.6173C25 13.8011 25 14.0341 25 14.5Z" stroke="#071A38" stroke-width="1.8" stroke-linejoin="round"/>
<path d="M21 7H24V10" stroke="#071A38" stroke-width="1.8" stroke-linecap="round" stroke-linejoin="round"/>
<path d="M23.5 7.5C23.5 7.5 19.5 12.5 9 16" stroke="#071A38" stroke-width="1.8" stroke-linecap="round" stroke-linejoin="round"/>
<path d="M18 18V23.5C18 23.9659 18 24.1989 17.9239 24.3827C17.8224 24.6277 17.6277 24.8224 17.3827 24.9239C17.1989 25 16.9659 25 16.5 25C16.0341 25 15.8011 25 15.6173 24.9239C15.3723 24.8224 15.1776 24.6277 15.0761 24.3827C15 24.1989 15 23.9659 15 23.5V18C15 17.5341 15 17.3011 15.0761 17.1173C15.1776 16.8723 15.3723 16.6776 15.6173 16.5761C15.8011 16.5 16.0341 16.5 16.5 16.5C16.9659 16.5 17.1989 16.5 17.3827 16.5761C17.6277 16.6776 17.8224 16.8723 17.9239 17.1173C18 17.3011 18 17.5341 18 18Z" stroke="#071A38" stroke-width="1.8" stroke-linejoin="round"/>
<path d="M11 20.5V23.5C11 23.9659 11 24.1989 10.9239 24.3827C10.8224 24.6277 10.6277 24.8224 10.3827 24.9239C10.1989 25 9.96594 25 9.5 25C9.03406 25 8.80109 25 8.61732 24.9239C8.37229 24.8224 8.17761 24.6277 8.07612 24.3827C8 24.1989 8 23.9659 8 23.5V20.5C8 20.0341 8 19.8011 8.07612 19.6173C8.17761 19.3723 8.37229 19.1776 8.61732 19.0761C8.80109 19 9.03406 19 9.5 19C9.96594 19 10.1989 19 10.3827 19.0761C10.6277 19.1776 10.8224 19.3723 10.9239 19.6173C11 19.8011 11 20.0341 11 20.5Z" stroke="#071A38" stroke-width="1.8" stroke-linejoin="round"/>
</svg>
